<?xml version="1.0" encoding="UTF-8"?>
<svg version="1.1" xmlns="http://www.w3.org/2000/svg" width="398" height="133">
<path d="M0 0 C131.34 0 262.68 0 398 0 C398 43.89 398 87.78 398 133 C266.66 133 135.32 133 0 133 C0 89.11 0 45.22 0 0 Z " fill="#CBE867" transform="translate(0,0)"/>
<path d="M0 0 C7.87885252 5.01381524 12.40762843 14.26441202 15 23 C15.54776606 27.38415713 15.56187779 31.71471349 15.53125 36.12890625 C15.53699036 37.97342628 15.53699036 37.97342628 15.54284668 39.85520935 C15.54555524 42.44116032 15.53826858 45.02713919 15.52148438 47.61303711 C15.50004353 51.55449859 15.52133408 55.49414112 15.546875 59.43554688 C15.5442319 61.95833733 15.53910729 64.48112665 15.53125 67.00390625 C15.53934692 68.17288956 15.54744385 69.34187286 15.55578613 70.54627991 C15.47151681 77.95306223 14.75575054 84.8947714 9.55285645 90.58180237 C3.27857948 96.05946416 -2.1536998 96.60717626 -10.28515625 96.3828125 C-16.70987788 95.72074865 -20.00035729 93.05226488 -24.375 88.5625 C-28.03812115 82.78603973 -28.26560525 77.64013126 -28 71 C-29.11375 71.0825 -30.2275 71.165 -31.375 71.25 C-41.00884394 71.21595815 -48.81413894 65.76903062 -55.65234375 59.48046875 C-63.90565124 50.84914717 -65.70096608 40.74993858 -65.52124023 29.23046875 C-65.07596872 18.5520666 -61.48168861 10.70347779 -54 3 C-51.16458811 0.63364324 -48.23860143 -1.23300187 -45 -3 C-44.27425781 -3.41378906 -43.54851562 -3.82757812 -42.80078125 -4.25390625 C-29.1048214 -10.9274894 -12.61178573 -7.12554965 0 0 Z " fill="#242422" transform="translate(223,29)"/>
<path d="M0 0 C6.6 0 13.2 0 20 0 C22.26096133 6.78288398 24.49874571 13.56891823 26.6875 20.375 C27.03055176 21.43976562 27.37360352 22.50453125 27.72705078 23.6015625 C29.63810037 29.58065352 31.47764695 35.57407251 33.23046875 41.6015625 C33.76957886 43.45515381 33.76957886 43.45515381 34.31958008 45.34619141 C35.01544751 47.75524808 35.7042559 50.1663566 36.38549805 52.57958984 C36.69914307 53.6670752 37.01278809 54.75456055 37.3359375 55.875 C37.74658447 57.32519531 37.74658447 57.32519531 38.16552734 58.8046875 C38.78231416 61.17330845 38.78231416 61.17330845 41 62 C41.10054687 61.22527344 41.20109375 60.45054688 41.3046875 59.65234375 C42.22208393 54.83343552 43.666961 50.24201707 45.125 45.5625 C45.75791413 43.5078438 46.39072351 41.45315534 47.0234375 39.3984375 C47.34924805 38.34495117 47.67505859 37.29146484 48.01074219 36.20605469 C49.60546794 31.03775789 51.17713219 25.86248177 52.75 20.6875 C53.03117676 19.76461182 53.31235352 18.84172363 53.60205078 17.89086914 C53.87259277 17.00262451 54.14313477 16.11437988 54.421875 15.19921875 C54.65487305 14.43440186 54.88787109 13.66958496 55.12792969 12.8815918 C56.42666822 8.59015537 57.71163166 4.29456114 59 0 C70.88 0 82.76 0 95 0 C95.05607422 5.40052734 95.05607422 5.40052734 95.11328125 10.91015625 C95.1595314 14.40850803 95.21075253 17.9067543 95.26245117 21.4050293 C95.29564466 23.83074498 95.32369384 26.25653686 95.34643555 28.68237305 C95.38008331 32.17529684 95.43240631 35.66752585 95.48828125 39.16015625 C95.49467117 40.23959 95.5010611 41.31902374 95.50764465 42.4311676 C95.64643086 49.58658311 96.33562082 54.75278788 101 60.4375 C105.60106375 62.83388737 109.92020034 62.60528533 115 62 C119.01526022 60.6331029 119.84349903 59.2529161 122.09082031 55.62109375 C124.70246007 50.22372514 124.60262519 44.96427188 124.609375 39.0625 C124.62591125 37.94182129 124.64244751 36.82114258 124.65948486 35.66650391 C124.70780621 32.11094596 124.72930147 28.55581527 124.75 25 C124.7781728 22.57940577 124.80810205 20.15883131 124.83984375 17.73828125 C124.91356154 11.82555602 124.96323351 5.91306578 125 0 C130.94 0 136.88 0 143 0 C143.09939933 7.48897498 143.17172015 14.97755991 143.21972656 22.46704102 C143.23975435 25.01105444 143.26698464 27.55502235 143.30175781 30.09887695 C143.3506643 33.77045983 143.3730582 37.44143033 143.390625 41.11328125 C143.41127014 42.23769119 143.43191528 43.36210114 143.45318604 44.52058411 C143.45587466 54.13417181 141.57502623 63.31937104 134.76953125 70.50390625 C125.19408096 78.59970639 114.2955734 80.08194908 102.20751953 79.28125 C94.94073179 78.3554217 88.9986811 74.42758127 84 69.25 C78.21350317 61.60526893 76.40336178 53.84066818 76.390625 44.3984375 C76.37408875 43.435961 76.35755249 42.4734845 76.34051514 41.48184204 C76.29242526 38.44616061 76.2707514 35.4109786 76.25 32.375 C76.22180766 30.30075665 76.19187573 28.22653617 76.16015625 26.15234375 C76.08667707 21.1016037 76.03686496 16.05113458 76 11 C75.57702637 12.24386475 75.15405273 13.48772949 74.71826172 14.76928711 C73.12011921 19.46818814 71.52068537 24.16664884 69.92089844 28.86499023 C69.23403306 30.88277752 68.54749909 32.90067764 67.86132812 34.91870117 C65.89170277 40.71095467 63.91287877 46.49993965 61.92605591 52.28631592 C61.03911822 54.88536923 60.16730959 57.48905131 59.29858398 60.09423828 C58.77881359 61.62673974 58.25873268 63.15913594 57.73828125 64.69140625 C57.51337006 65.37984116 57.28845886 66.06827606 57.05673218 66.77757263 C55.15393034 72.31585138 52.97796968 74.9944334 48 78 C41.92023026 80.02658991 35.1924433 80.07698969 29.4375 77.25 C25.82429146 73.91473057 23.76540095 70.92031827 22.20996094 66.25756836 C21.89242859 65.31815903 21.57489624 64.37874969 21.2477417 63.41087341 C20.91333069 62.39743362 20.57891968 61.38399384 20.234375 60.33984375 C19.87788879 59.28076309 19.52140259 58.22168243 19.15411377 57.13050842 C18.01242579 53.73513409 16.88068684 50.33655197 15.75 46.9375 C14.2694718 42.50781881 12.78438111 38.07968623 11.296875 33.65234375 C10.93630005 32.57640961 10.5757251 31.50047546 10.20422363 30.39193726 C7.62710885 22.74330091 4.91148504 15.15578888 2.04364014 7.61131287 C0 2.19916511 0 2.19916511 0 0 Z " fill="#242422" transform="translate(14,23)"/>
<path d="M0 0 C0.83920486 0.00141495 1.67840973 0.0028299 2.54304504 0.00428772 C5.22274341 0.0098841 7.90235815 0.0224359 10.58203125 0.03515625 C12.39908733 0.04017172 14.21614473 0.04473454 16.03320312 0.04882812 C20.48701138 0.05985234 24.94075714 0.07711447 29.39453125 0.09765625 C29.39453125 5.37765625 29.39453125 10.65765625 29.39453125 16.09765625 C27.04714844 16.14664063 24.69976562 16.195625 22.28125 16.24609375 C20.00750358 16.30010585 17.73386242 16.35741235 15.46020508 16.41503906 C13.88020674 16.45331846 12.30012156 16.48817322 10.7199707 16.51953125 C8.4484148 16.56520501 6.17745616 16.62319409 3.90625 16.68359375 C3.19989914 16.69514496 2.49354828 16.70669617 1.76579285 16.71859741 C-1.88288268 16.82836673 -3.48760421 17.01907989 -6.60546875 19.09765625 C-7.13620128 23.1697651 -7.13620128 23.1697651 -6.60546875 27.09765625 C-3.30212204 30.33494595 -0.61293894 30.50657738 3.91015625 30.609375 C5.16054688 30.64482422 6.4109375 30.68027344 7.69921875 30.71679688 C9.65214844 30.75063477 9.65214844 30.75063477 11.64453125 30.78515625 C12.96195312 30.81931641 14.279375 30.85347656 15.63671875 30.88867188 C18.88902296 30.97115785 22.14176392 31.03608298 25.39453125 31.09765625 C25.39453125 36.04765625 25.39453125 40.99765625 25.39453125 46.09765625 C23.4196875 46.13503906 21.44484375 46.17242187 19.41015625 46.2109375 C16.82159534 46.27658941 14.23305453 46.34303701 11.64453125 46.41015625 C9.69160156 46.44399414 9.69160156 46.44399414 7.69921875 46.47851562 C6.44882812 46.51396484 5.1984375 46.54941406 3.91015625 46.5859375 C2.75805664 46.61212158 1.60595703 46.63830566 0.41894531 46.6652832 C-2.84868412 47.13242655 -4.26742734 47.80953243 -6.60546875 50.09765625 C-7.19632875 52.03509824 -7.19632875 52.03509824 -7.04296875 54.09765625 C-7.04103516 55.11859375 -7.04103516 55.11859375 -7.0390625 56.16015625 C-6.45037556 58.79068528 -5.79747823 59.4977397 -3.60546875 61.09765625 C-1.01569062 61.4773184 1.34924494 61.68089691 3.94921875 61.75 C4.68778107 61.7774379 5.42634338 61.80487579 6.18728638 61.83314514 C7.74880921 61.88646106 9.31060607 61.93221187 10.87255859 61.97094727 C13.25525988 62.03477396 15.63438981 62.13602762 18.015625 62.24023438 C19.53508697 62.28744149 21.05461963 62.33243585 22.57421875 62.375 C23.28270966 62.40810776 23.99120056 62.44121552 24.72116089 62.47532654 C29.67766091 62.55396156 31.77832972 61.35714686 35.39453125 58.09765625 C39.25736229 57.61480237 41.59564885 57.73452789 45.14453125 59.34765625 C48.80709528 62.19631717 50.20051442 63.78804267 50.89453125 68.47265625 C50.23506496 73.25378689 48.77019018 74.72199732 45.39453125 78.09765625 C42.19714463 79.69634956 38.86436425 79.6085112 35.39453125 79.09765625 C32.39453125 77.09765625 32.39453125 77.09765625 30.39453125 75.09765625 C29.89953125 76.58265625 29.89953125 76.58265625 29.39453125 78.09765625 C24.30832481 78.19737075 19.22270133 78.26951906 14.13574219 78.31738281 C12.40940423 78.3373591 10.68313272 78.36454997 8.95703125 78.39941406 C-12.40049013 78.81964307 -12.40049013 78.81964307 -19.48925781 72.38867188 C-21.05301279 70.71188621 -22.33378059 69.00309 -23.60546875 67.09765625 C-24.22421875 66.19015625 -24.84296875 65.28265625 -25.48046875 64.34765625 C-27.36137613 58.91392381 -27.67533647 53.24957045 -25.80859375 47.75 C-24.11539081 44.26590933 -22.08981198 41.07886813 -19.60546875 38.09765625 C-20.22421875 37.35515625 -20.84296875 36.61265625 -21.48046875 35.84765625 C-26.5072033 29.34247036 -26.59998097 23.178068 -25.60546875 15.09765625 C-22.97392759 8.3059581 -18.067646 4.18406926 -11.60546875 1.09765625 C-7.72085828 -0.19721391 -4.04662919 -0.02560415 0 0 Z " fill="#242523" transform="translate(334.60546875,22.90234375)"/>
<path d="M0 0 C6.27 0 12.54 0 19 0 C19.0093457 1.56886963 19.01869141 3.13773926 19.02832031 4.75415039 C19.06827162 10.5895601 19.13404613 16.42444549 19.20751953 22.25952148 C19.23569908 24.78223929 19.25692854 27.30504489 19.27099609 29.82788086 C19.29246633 33.45992891 19.3391411 37.09092466 19.390625 40.72265625 C19.39185364 41.84583755 19.39308228 42.96901886 19.39434814 44.12623596 C19.51498314 50.61461838 20.11127444 54.72974151 24 60 C28.29918579 63.17613318 33.90747329 62.5969532 39 62 C42.58076327 60.30384898 44.38317687 59.2555136 46.13241577 55.69502258 C47.05088362 52.84193752 47.27601667 50.55816889 47.31884766 47.56713867 C47.33871735 46.50641647 47.35858704 45.44569427 47.37905884 44.35282898 C47.39061005 43.2193251 47.40216125 42.08582123 47.4140625 40.91796875 C47.43342865 39.74865311 47.4527948 38.57933746 47.4727478 37.37458801 C47.53245195 33.64563251 47.57889297 29.91664599 47.625 26.1875 C47.66318815 23.6568877 47.70224037 21.12628827 47.7421875 18.59570312 C47.83814624 12.39724023 47.92221169 6.19871648 48 0 C54.27 0 60.54 0 67 0 C67.07450967 7.2224709 67.12877235 14.44471487 67.16479492 21.66748047 C67.17982224 24.12129619 67.2002498 26.57508533 67.22631836 29.02880859 C67.2629682 32.56875192 67.27978755 36.10833814 67.29296875 39.6484375 C67.30845261 40.73426117 67.32393646 41.82008484 67.33988953 42.93881226 C67.34228584 53.94064418 65.05279786 62.26439162 57.6875 70.625 C48.09444091 79.10258711 38.417143 79.77991495 26.17529297 79.19091797 C18.18062765 78.48925374 12.40910368 73.59350494 7 68 C0.17851594 59.70360047 -0.44037676 49.98559784 -0.29296875 39.6484375 C-0.28872391 38.50839264 -0.28447906 37.36834778 -0.28010559 36.1937561 C-0.26344334 32.58725387 -0.22581395 28.98133057 -0.1875 25.375 C-0.17243709 22.91537271 -0.15875151 20.45573657 -0.14648438 17.99609375 C-0.11358057 11.99717608 -0.06188465 5.99868586 0 0 Z " fill="#262723" transform="translate(240,23)"/>
<path d="M0 0 C131.34 0 262.68 0 398 0 C398 9.9 398 19.8 398 30 C396.99136739 27.98273477 395.983419 25.96457392 395.02734375 23.921875 C390.98445483 15.86507844 385.17352626 9.74635276 376.56453025 6.63294971 C371.06223936 5.27493359 365.36919421 5.58594463 359.73524475 5.61231995 C358.28282063 5.60814346 356.83039978 5.60266422 355.37798494 5.59600013 C351.40001587 5.58156809 347.42225439 5.58578319 343.44427407 5.59316695 C339.14902252 5.59790185 334.85381566 5.58538594 330.55857849 5.57514954 C322.14912601 5.55796277 313.73974824 5.55712124 305.33028276 5.56236244 C298.49463491 5.56640545 291.65900914 5.56495903 284.82336235 5.55961418 C283.85011762 5.55886576 282.87687289 5.55811734 281.87413589 5.55734624 C279.89693574 5.55581475 277.91973559 5.5542764 275.94253545 5.55273127 C257.40538194 5.53900678 238.86827065 5.54444366 220.3311181 5.55591648 C203.37596591 5.56584974 186.42092284 5.55290649 169.46578748 5.52898229 C152.05085828 5.50459466 134.63597992 5.49498254 117.22103399 5.50163502 C107.4459948 5.50512786 97.67103954 5.50289079 87.89601326 5.48538399 C79.57517366 5.47066627 71.25447709 5.47002099 62.93364031 5.4874549 C58.68944668 5.49597064 54.44550862 5.49810048 50.20132828 5.48280334 C46.3132706 5.46896338 42.4256876 5.47371019 38.53765743 5.49304258 C37.1339786 5.49680504 35.7302618 5.49387345 34.32661677 5.48343093 C22.92294841 5.4046501 15.18079358 7.32467239 6.73046875 15.1171875 C4.21138157 17.85804534 2.63426721 20.66337112 1 24 C0.67 24 0.34 24 0 24 C0 16.08 0 8.16 0 0 Z " fill="#F4F3EA" transform="translate(0,0)"/>
<path d="M0 0 C0.33 0 0.66 0 1 0 C1 9.57 1 19.14 1 29 C-130.34 29 -261.68 29 -397 29 C-397 21.41 -397 13.82 -397 6 C-393 11 -393 11 -391.359375 13.09765625 C-386.63276102 18.86825535 -382.01174557 21.66275148 -375 24 C-373.05473053 24.09565742 -371.10629911 24.13094492 -369.15868187 24.13422108 C-367.93210377 24.13867892 -366.70552567 24.14313676 -365.44177854 24.14772969 C-364.07335813 24.14764039 -362.70493772 24.14745054 -361.33651733 24.14717102 C-359.88841167 24.15046968 -358.44030692 24.15419525 -356.99220335 24.1583125 C-353.00300155 24.16834056 -349.0138148 24.17205059 -345.02460217 24.17470181 C-340.72586759 24.17860251 -336.42714494 24.18818105 -332.12841797 24.19691467 C-321.74169883 24.21668631 -311.3549787 24.22674644 -300.96824545 24.23564246 C-296.07807917 24.24002445 -291.18791398 24.24539151 -286.29774857 24.25063133 C-270.04337222 24.26764475 -253.78899654 24.28213899 -237.53461266 24.28938007 C-233.31555556 24.29129 -229.09649848 24.29321033 -224.87744141 24.29516602 C-223.82880231 24.29564976 -222.7801632 24.2961335 -221.69974716 24.2966319 C-204.71195273 24.30493243 -187.72422871 24.33026924 -170.73646502 24.36274669 C-153.29910381 24.39581212 -135.86177839 24.41382839 -118.42438567 24.41702431 C-108.63249257 24.41918995 -98.84070213 24.4279464 -89.04883957 24.45348549 C-80.70959429 24.47518547 -72.3704766 24.48324638 -64.03120629 24.47351871 C-59.77691093 24.46897189 -55.52287885 24.4708823 -51.26861954 24.49028015 C-47.37112734 24.50789764 -43.47409078 24.50692583 -39.57659383 24.49138286 C-38.16939391 24.48900461 -36.76216255 24.4933417 -35.35501067 24.50521151 C-24.07644952 24.59442878 -16.16048221 22.74955338 -7.79296875 15 C-3.91078054 10.66954169 -1.22009748 5.68950722 0 0 Z " fill="#F4F3E9" transform="translate(397,104)"/>
<path d="M0 0 C2.36492766 1.46514037 4.27129497 2.99306971 6.2578125 4.9375 C6.804375 5.47117187 7.3509375 6.00484375 7.9140625 6.5546875 C12.16310122 11.8659859 12.4069028 18.67227371 12 25.2265625 C11.18136486 29.31973821 10.55525388 30.44470584 7.2578125 32.875 C6.42894531 33.3596875 5.60007813 33.844375 4.74609375 34.34375 C1.88982875 36.17319446 0.44096822 38.15250545 -1.5546875 40.875 C-3.88818186 43.59508125 -5.1451154 44.7759108 -8.62890625 45.71875 C-14.98238736 46.03761982 -19.34499137 44.87309243 -24.125 40.6484375 C-30.23878792 34.18022709 -32.29992806 27.57127147 -32.12109375 18.8203125 C-31.30271913 12.59391594 -28.42858053 7.07012447 -23.6796875 2.9375 C-16.53583434 -1.92640003 -8.31136541 -3.22035811 0 0 Z " fill="#CAE767" transform="translate(207.7421875,39.0625)"/>
<path d="M0 0 C0.05819424 3.24992446 0.09366116 6.49971435 0.125 9.75 C0.14175781 10.67039062 0.15851563 11.59078125 0.17578125 12.5390625 C0.18222656 13.42851563 0.18867188 14.31796875 0.1953125 15.234375 C0.20578613 16.05131836 0.21625977 16.86826172 0.22705078 17.70996094 C-0.02170084 20.21887518 -0.74299871 21.83395625 -2 24 C-4.375 24.125 -4.375 24.125 -7 24 C-9.5354674 21.4645326 -9.35408781 20.39793851 -9.4375 16.875 C-9.33195369 10.17280951 -6.87669756 6.07967622 -2.39453125 1.28125 C-1 0 -1 0 0 0 Z " fill="#BED862" transform="translate(221,85)"/>
<path d="M0 0 C0.33 0 0.66 0 1 0 C1.01417969 0.70125 1.02835937 1.4025 1.04296875 2.125 C1.35365643 8.30516575 2.2112868 12.35616818 5.94140625 17.34375 C7 19 7 19 7 22 C5.77622831 23.65374552 4.55081775 25.30633697 3.3125 26.94921875 C1.12775878 30.36287691 0.08210431 34.12026015 -1 38 C-1.97021815 34.79499917 -2.06179486 32.04805388 -1.9140625 28.7109375 C-1.87023437 27.68613281 -1.82640625 26.66132812 -1.78125 25.60546875 C-1.7296875 24.53941406 -1.678125 23.47335938 -1.625 22.375 C-1.58117187 21.33214844 -1.53734375 20.28929687 -1.4921875 19.21484375 C-1.20308863 12.78239397 -0.71849376 6.39869509 0 0 Z " fill="#C1DC63" transform="translate(308,41)"/>
</svg>
